# xmcd CD database file
#
# Track frame offsets:
#	150
#	28619
#	61856
#	84062
#	108085
#	137210
#
# Disc length: 2083 seconds
#
# Revision: 0
# Processed by: cddbd v1.5.2PL0 Copyright (c) Steve Scherf et al.
# Submitted via: CDex 1.51
#
DISCID=3e082106
DTITLE=Kenny Burell - Original Jazz Classis Collection
DYEAR=1998
DGENRE=Jazz
TTITLE0=All Of You
TTITLE1=Soul Call
TTITLE2=Out Of This World
TTITLE3=Never Knew
TTITLE4=Strictly Confidential
TTITLE5=Here's That Rainy Day
EXTD=YEAR: 1998
EXTT0=
EXTT1=
EXTT2=
EXTT3=
EXTT4=
EXTT5=
PLAYORDER=
